<?xml version="1.0" standalone="no"?><!DOCTYPE svg PUBLIC "-//W3C//DTD SVG 1.1//EN" "http://www.w3.org/Graphics/SVG/1.1/DTD/svg11.dtd"><svg class="icon" height="512" viewBox="0 0 1024 1024" version="1.1" xmlns="http://www.w3.org/2000/svg"><path d="M215.368 74.462c61.35-16.26 238.6-47.866 296.632 109.216 0 0-96.194 65.752-194.206-32.26-43.682-43.682-80.606-60.344-102.422-66.702-5.232-1.522-5.268-8.856-0.004-10.254zM711.846 108.25C672.422 97.428 547.528 73.202 512 187.96c0 0 56.496 45.62 127.118-15.208 31.892-27.47 59.676-45.752 74.138-54.61 4.102-2.512 3.228-8.618-1.41-9.892z" fill="#8CE16E" /><path d="M715.216 111.358c-82.67-5.402-130.472 70.208-185.56 73.488V95.756A17.652 17.652 0 0 0 512 78.1a17.652 17.652 0 0 0-17.656 17.656v84.722c-109.282-23.254-145.286-117.436-282.616-101.872-0.45 2.484 0.632 5.232 3.642 6.11 21.816 6.356 58.744 23.02 102.422 66.702 72.744 72.744 144.396 55.282 176.552 41.444v97.104h35.31V197.63c22.036 8.956 62.578 15.504 109.462-24.878 31.892-27.47 59.676-45.752 74.138-54.61 2.566-1.572 2.99-4.464 1.962-6.784z" fill="#7DC86E" /><path d="M512 257.348c35.31 0 52.966-17.656 105.932-17.656C868.504 239.694 1024 421.33 1024 610.452c0 206.628-229.23 353.104-512 353.104S0 817.08 0 610.452c0-189.124 155.496-370.758 406.068-370.758 52.966 0 70.622 17.654 105.932 17.654z" fill="#FFB450" /><path d="M635.586 395.896m-35.31 0a35.31 35.31 0 1 0 70.62 0 35.31 35.31 0 1 0-70.62 0Z" fill="#FFA041" /><path d="M723.862 501.826m-17.656 0a17.656 17.656 0 1 0 35.312 0 17.656 17.656 0 1 0-35.312 0Z" fill="#FFA041" /><path d="M785.656 404.722m-26.482 0a26.482 26.482 0 1 0 52.964 0 26.482 26.482 0 1 0-52.964 0Z" fill="#FFA041" /><path d="M750.344 907.9c-206.306 0-381.292-104.82-443.512-265.046 0.716 0.058 1.402 0.214 2.132 0.214 14.626 0 26.482-11.858 26.482-26.482s-11.858-26.482-26.482-26.482c-6.386 0-12.164 2.352-16.74 6.116-6.372-26.956-9.744-55.174-9.744-84.484 0-3.326 0.316-6.626 0.386-9.946 19.32-0.212 34.924-15.902 34.924-35.27 0-17.122-12.188-31.38-28.36-34.61 11.874-69.842 38.948-135.95 79.474-190.724C140.252 258.18 0 430.882 0 610.452c0 206.63 229.23 353.104 512 353.104 106.42 0 205.246-20.762 287.134-57.656-16.038 1.314-32.31 2-48.79 2z" fill="#FFA041" /></svg>