<svg width="64" height="64" xmlns="http://www.w3.org/2000/svg">

 <g>
  <title>background</title>
  <rect fill="none" id="canvas_background" height="402" width="582" y="-1" x="-1"/>
 </g>
 <g>
  <title>Layer 1</title>
  <path fill="#30cadb" id="svg_1" d="m59,45.268l-0.246,-0.143c0.314,-0.18 0.574,-0.425 0.745,-0.722c0.323,-0.56 0.37,-1.266 0.062,-1.888c-0.489,-0.99 -1.689,-1.396 -2.679,-0.907l-2.272,1.124l-2.236,-1.291l4.596,-1.617c0.468,-0.166 0.836,-0.487 1.066,-0.887c0.281,-0.487 0.357,-1.092 0.155,-1.664c-0.366,-1.043 -1.509,-1.59 -2.551,-1.223l-7.829,2.757l-0.555,-0.32l1.756,-1.998c0.09,-0.101 0.166,-0.209 0.23,-0.321c0.468,-0.809 0.315,-1.861 -0.412,-2.5c-0.83,-0.73 -2.094,-0.648 -2.822,0.182l-2.283,2.598l-2.725,-1.57l0,-5.756l2.725,-1.57l2.283,2.599c0.729,0.83 1.992,0.911 2.822,0.182c0.728,-0.64 0.88,-1.691 0.412,-2.5c-0.064,-0.112 -0.141,-0.22 -0.23,-0.321l-1.756,-1.998l0.555,-0.32l7.829,2.757c1.042,0.367 2.185,-0.18 2.551,-1.223c0.202,-0.573 0.126,-1.177 -0.155,-1.665c-0.23,-0.399 -0.599,-0.721 -1.066,-0.886l-4.596,-1.618l2.236,-1.291l2.272,1.124c0.989,0.489 2.189,0.083 2.679,-0.907c0.309,-0.623 0.262,-1.328 -0.062,-1.888c-0.171,-0.297 -0.431,-0.542 -0.745,-0.722l0.246,-0.143c0.957,-0.552 1.284,-1.775 0.732,-2.732c-0.553,-0.957 -1.775,-1.285 -2.732,-0.732l-0.24,0.139c0.002,-1.049 -0.805,-1.932 -1.863,-2c-1.102,-0.072 -2.053,0.765 -2.124,1.867l-0.163,2.53l-2.236,1.291l0.896,-4.788c0.203,-1.086 -0.512,-2.131 -1.598,-2.334c-1.086,-0.203 -2.131,0.513 -2.334,1.598l-1.527,8.158l-0.555,0.321l-0.852,-2.52c-0.348,-1.048 -1.49,-1.607 -2.535,-1.253c-1.047,0.354 -1.608,1.489 -1.254,2.536l1.108,3.276l-2.759,1.589l-4.964,-2.839l0,-3.2l3.393,-0.678c1.083,-0.216 1.785,-1.27 1.568,-2.353c-0.216,-1.083 -1.266,-1.787 -2.354,-1.569l-2.607,0.522l0,-0.641l6.302,-5.401c0.839,-0.719 0.936,-1.981 0.217,-2.82c-0.719,-0.838 -1.981,-0.936 -2.82,-0.217l-3.699,3.169l0,-2.581l2.109,-1.406c0.919,-0.613 1.168,-1.854 0.555,-2.773c-0.59,-0.885 -1.758,-1.141 -2.664,-0.613l0,-0.278c0,-1.104 -0.896,-2 -2,-2s-2,0.896 -2,2l0,0.278c-0.906,-0.526 -2.075,-0.271 -2.664,0.613c-0.613,0.919 -0.364,2.161 0.555,2.773l2.109,1.406l0,2.581l-3.698,-3.17c-0.839,-0.719 -2.102,-0.621 -2.82,0.217c-0.719,0.839 -0.622,2.102 0.217,2.82l6.301,5.402l0,0.641l-2.608,-0.521c-1.081,-0.218 -2.137,0.486 -2.353,1.569c-0.217,1.083 0.485,2.137 1.569,2.353l3.392,0.677l0,3.2l-4.965,2.837l-2.758,-1.589l1.108,-3.276c0.355,-1.047 -0.207,-2.182 -1.253,-2.536c-1.045,-0.354 -2.188,0.206 -2.535,1.253l-0.853,2.52l-0.555,-0.321l-1.527,-8.158c-0.203,-1.085 -1.249,-1.8 -2.334,-1.598c-1.085,0.203 -1.8,1.249 -1.598,2.334l0.896,4.788l-2.235,-1.291l-0.164,-2.53c-0.071,-1.103 -1.022,-1.939 -2.124,-1.867c-1.059,0.068 -1.865,0.952 -1.863,2l-0.24,-0.137c-0.957,-0.552 -2.18,-0.224 -2.732,0.732s-0.225,2.18 0.732,2.732l0.247,0.143c-0.315,0.18 -0.574,0.425 -0.746,0.722c-0.323,0.56 -0.37,1.266 -0.062,1.888c0.489,0.99 1.689,1.396 2.679,0.907l2.273,-1.124l2.235,1.291l-4.595,1.618c-0.468,0.165 -0.837,0.487 -1.067,0.886c-0.281,0.488 -0.357,1.092 -0.155,1.665c0.367,1.042 1.509,1.589 2.551,1.223l7.829,-2.757l0.555,0.32l-1.756,1.998c-0.089,0.101 -0.167,0.209 -0.231,0.321c-0.467,0.809 -0.315,1.861 0.413,2.5c0.83,0.729 2.093,0.648 2.822,-0.182l2.284,-2.599l2.724,1.57l0,5.756l-2.724,1.569l-2.284,-2.598c-0.729,-0.83 -1.992,-0.912 -2.822,-0.182c-0.728,0.639 -0.88,1.691 -0.413,2.5c0.064,0.112 0.142,0.221 0.231,0.321l1.756,1.998l-0.555,0.32l-7.829,-2.755c-1.042,-0.367 -2.184,0.18 -2.551,1.223c-0.202,0.572 -0.126,1.177 0.155,1.664c0.23,0.399 0.599,0.721 1.067,0.887l4.595,1.617l-2.235,1.291l-2.273,-1.124c-0.99,-0.489 -2.189,-0.083 -2.679,0.907c-0.308,0.622 -0.262,1.328 0.062,1.888c0.171,0.297 0.43,0.542 0.746,0.722l-0.247,0.142c-0.957,0.552 -1.284,1.775 -0.732,2.732c0.552,0.956 1.775,1.284 2.732,0.732l0.241,-0.14c-0.002,1.049 0.804,1.933 1.863,2.001c1.102,0.071 2.053,-0.766 2.124,-1.867l0.164,-2.53l2.235,-1.29l-0.896,4.787c-0.202,1.086 0.513,2.131 1.598,2.334s2.131,-0.512 2.334,-1.598l1.527,-8.158l0.555,-0.32l0.853,2.52c0.347,1.048 1.489,1.607 2.535,1.254c1.047,-0.354 1.608,-1.489 1.253,-2.536l-1.108,-3.276l2.758,-1.589l4.964,2.836l0,3.201l-3.392,0.678c-1.083,0.217 -1.786,1.27 -1.569,2.354c0.216,1.082 1.272,1.791 2.353,1.568l2.608,-0.522l0,0.641l-6.302,5.401c-0.838,0.719 -0.936,1.981 -0.217,2.82s1.981,0.935 2.82,0.217l3.699,-3.169l0,2.581l-2.109,1.406c-0.919,0.613 -1.167,1.854 -0.555,2.773c0.589,0.883 1.757,1.139 2.664,0.613l0,0.278c0,1.104 0.896,2 2,2s2,-0.896 2,-2l0,-0.285c0.314,0.183 0.655,0.285 0.998,0.285c0.646,0 1.281,-0.313 1.666,-0.891c0.613,-0.919 0.364,-2.16 -0.555,-2.773l-2.109,-1.406l0,-2.581l3.698,3.17c0.378,0.323 0.841,0.481 1.301,0.481c0.563,0 1.124,-0.236 1.52,-0.698c0.719,-0.839 0.622,-2.102 -0.217,-2.82l-6.302,-5.402l0,-0.641l2.607,0.521c0.133,0.028 0.265,0.04 0.395,0.04c0.934,0 1.77,-0.657 1.959,-1.607c0.217,-1.084 -0.485,-2.137 -1.568,-2.354l-3.393,-0.678l0,-3.201l4.965,-2.837l2.759,1.589l-1.108,3.276c-0.354,1.047 0.207,2.182 1.254,2.536c1.045,0.354 2.188,-0.206 2.535,-1.254l0.852,-2.52l0.555,0.32l1.527,8.158c0.203,1.086 1.248,1.801 2.334,1.598s1.801,-1.248 1.598,-2.334l-0.896,-4.787l2.236,1.29l0.163,2.53c0.071,1.102 1.022,1.938 2.124,1.867c1.059,-0.068 1.865,-0.952 1.863,-2.001l0.24,0.14c0.957,0.552 2.18,0.224 2.732,-0.732c0.551,-0.956 0.224,-2.179 -0.733,-2.731zm-32,-10.428l0,-5.679l5,-2.857l5,2.857l0,5.679l-5,2.856l-5,-2.856z"/>
 </g>
</svg>